STARTFONT 2.1
FONT -Adobe-Helvetica-Medium-O-Normal--24-240-75-75-P-130-ISO8859-2
SIZE 24 75 75
FONTBOUNDINGBOX 28 29 -1 -5
COMMENT $XConsortium: helvO24.bdf,v 1.13 95/01/26 18:02:44 gildea Exp $
COMMENT 
COMMENT +
COMMENT  Copyright 1984-1989, 1994 Adobe Systems Incorporated.
COMMENT  Copyright 1988, 1994 Digital Equipment Corporation.
COMMENT
COMMENT  Adobe is a trademark of Adobe Systems Incorporated which may be
COMMENT  registered in certain jurisdictions.
COMMENT  Permission to use these trademarks is hereby granted only in
COMMENT  association with the images described in this file.
COMMENT
COMMENT  Permission to use, copy, modify, distribute and sell this software
COMMENT  and its documentation for any purpose and without fee is hereby
COMMENT  granted, provided that the above copyright notices appear in all
COMMENT  copies and that both those copyright notices and this permission
COMMENT  notice appear in supporting documentation, and that the names of
COMMENT  Adobe Systems and Digital Equipment Corporation not be used in
COMMENT  advertising or publicity pertaining to distribution of the software
COMMENT  without specific, written prior permission.  Adobe Systems and
COMMENT  Digital Equipment Corporation make no representations about the
COMMENT  suitability of this software for any purpose.  It is provided "as
COMMENT  is" without express or implied warranty.
COMMENT -
COMMENT  
COMMENT  Translation to ISO8859-2 by Cub Soft;  Petr.Kolar@vslib.cz
COMMENT  
STARTPROPERTIES 28
FOUNDRY "Adobe"
FAMILY_NAME "Helvetica"
WEIGHT_NAME "Medium"
SLANT "O"
SETWIDTH_NAME "Normal"
ADD_STYLE_NAME ""
PIXEL_SIZE 24
POINT_SIZE 240
RESOLUTION_X 75
RESOLUTION_Y 75
SPACING "P"
AVERAGE_WIDTH 130
CHARSET_REGISTRY "ISO8859"
CHARSET_ENCODING "2"
CAP_HEIGHT 19
X_HEIGHT 14
FONT_ASCENT 22
FONT_DESCENT 5
FACE_NAME "Helvetica Oblique"

STARTCHAR space
ENCODING 32
SWIDTH 278 0
DWIDTH 6 0
BBX 1 1 0 0
BITMAP
00
ENDCHAR
STARTCHAR exclam
ENCODING 33
SWIDTH 278 0
DWIDTH 7 0
BBX 6 19 3 0
BITMAP
0c
0c
0c
0c
18
18
18
18
30
30
30
30
60
60
00
00
c0
c0
c0
ENDCHAR
STARTCHAR quotedbl
ENCODING 34
SWIDTH 355 0
DWIDTH 8 0
BBX 7 6 4 13
BITMAP
66
66
66
cc
cc
88
ENDCHAR
STARTCHAR numbersign
ENCODING 35
SWIDTH 556 0
DWIDTH 14 0
BBX 13 17 3 0
BITMAP
0330
0330
0660
0660
3ff8
3ff8
0cc0
0cc0
1980
1980
ffe0
ffe0
3300
3300
6600
6600
6600
ENDCHAR
STARTCHAR dollar
ENCODING 36
SWIDTH 556 0
DWIDTH 13 0
BBX 13 21 2 -2
BITMAP
00c0
00c0
07f0
1ff8
3998
3198
3300
3b00
1f00
0f80
07c0
06e0
0670
0630
0630
cc70
cce0
ffc0
7f00
1800
1800
ENDCHAR
STARTCHAR percent
ENCODING 37
SWIDTH 889 0
DWIDTH 22 0
BBX 16 18 4 0
BITMAP
0001
1e03
3e06
630c
c318
c310
c630
7c60
78c0
0180
031e
063e
0c63
08c3
18c3
30c6
607c
4078
ENDCHAR
STARTCHAR ampersand
ENCODING 38
SWIDTH 667 0
DWIDTH 17 0
BBX 14 18 2 0
BITMAP
01e0
07f0
0630
0c30
0c30
0c60
0ee0
07c0
1f80
3f0c
739c
e1d8
c0f8
c070
c0f0
e1f8
7f9c
3e0c
ENDCHAR
STARTCHAR apostrophe
ENCODING 39
SWIDTH 222 0
DWIDTH 6 0
BBX 3 6 5 13
BITMAP
60
60
60
20
60
c0
ENDCHAR
STARTCHAR parenleft
ENCODING 40
SWIDTH 333 0
DWIDTH 8 0
BBX 8 24 3 -5
BITMAP
03
06
0c
18
18
30
30
60
60
60
c0
c0
c0
c0
c0
c0
c0
c0
c0
60
60
60
30
18
ENDCHAR
STARTCHAR parenright
ENCODING 41
SWIDTH 333 0
DWIDTH 8 0
BBX 8 24 0 -5
BITMAP
18
0c
06
06
06
03
03
03
03
03
03
03
03
03
06
06
06
0c
0c
18
18
30
60
c0
ENDCHAR
STARTCHAR asterisk
ENCODING 42
SWIDTH 389 0
DWIDTH 10 0
BBX 7 6 5 12
BITMAP
10
d6
7c
70
d8
88
ENDCHAR
STARTCHAR plus
ENCODING 43
SWIDTH 584 0
DWIDTH 14 0
BBX 12 12 2 1
BITMAP
0300
0300
0300
0600
0600
fff0
fff0
0600
0600
0c00
0c00
0c00
ENDCHAR
STARTCHAR comma
ENCODING 44
SWIDTH 278 0
DWIDTH 6 0
BBX 3 6 1 -3
BITMAP
60
60
60
20
60
c0
ENDCHAR
STARTCHAR minus
ENCODING 45
SWIDTH 584 0
DWIDTH 15 0
BBX 11 2 3 6
BITMAP
ffe0
ffe0
ENDCHAR
STARTCHAR period
ENCODING 46
SWIDTH 278 0
DWIDTH 6 0
BBX 2 3 2 0
BITMAP
c0
c0
c0
ENDCHAR
STARTCHAR slash
ENCODING 47
SWIDTH 278 0
DWIDTH 7 0
BBX 11 19 0 0
BITMAP
0060
00c0
00c0
0180
0180
0300
0300
0600
0600
0c00
0c00
1800
1800
3000
3000
6000
6000
c000
c000
ENDCHAR
STARTCHAR zero
ENCODING 48
SWIDTH 556 0
DWIDTH 13 0
BBX 13 18 2 0
BITMAP
03e0
07f0
0e38
1818
1818
3018
3018
6030
6030
6030
6030
c060
c060
c0c0
c0c0
e380
7f00
3e00
ENDCHAR
STARTCHAR one
ENCODING 49
SWIDTH 556 0
DWIDTH 13 0
BBX 6 18 6 0
BITMAP
0c
0c
1c
f8
f8
18
18
30
30
30
30
60
60
60
60
c0
c0
c0
ENDCHAR
STARTCHAR two
ENCODING 50
SWIDTH 556 0
DWIDTH 13 0
BBX 14 18 1 0
BITMAP
03e0
07f8
0e1c
1c0c
180c
180c
001c
0038
0070
01e0
0380
0f00
1c00
3800
7000
e000
ffe0
ffe0
ENDCHAR
STARTCHAR three
ENCODING 51
SWIDTH 556 0
DWIDTH 13 0
BBX 12 18 2 0
BITMAP
03c0
0fe0
1c70
3830
3030
0070
00e0
01c0
0780
07c0
00e0
0060
0060
c060
c0e0
e3c0
7f80
3e00
ENDCHAR
STARTCHAR four
ENCODING 52
SWIDTH 556 0
DWIDTH 13 0
BBX 12 18 2 0
BITMAP
0030
0070
00f0
01b0
0360
0660
0c60
18c0
18c0
30c0
6180
c180
ffe0
ffe0
0180
0300
0300
0300
ENDCHAR
STARTCHAR five
ENCODING 53
SWIDTH 556 0
DWIDTH 13 0
BBX 13 18 2 0
BITMAP
0ff8
0ff8
0c00
0c00
1800
1800
1f80
3fc0
38e0
0060
0060
0060
0060
c0e0
c0c0
c3c0
ff80
3e00
ENDCHAR
STARTCHAR six
ENCODING 54
SWIDTH 556 0
DWIDTH 13 0
BBX 13 18 2 0
BITMAP
01e0
07f0
0e38
1818
3818
3000
6000
6f00
dfc0
f0e0
e060
c060
c060
c060
e0e0
71c0
7f80
1e00
ENDCHAR
STARTCHAR seven
ENCODING 55
SWIDTH 556 0
DWIDTH 13 0
BBX 13 18 3 0
BITMAP
3ff8
3ff8
0030
0060
00c0
01c0
0380
0300
0600
0e00
1c00
1800
3800
3000
6000
6000
c000
c000
ENDCHAR
STARTCHAR eight
ENCODING 56
SWIDTH 556 0
DWIDTH 13 0
BBX 12 18 2 0
BITMAP
03c0
07e0
0c70
1830
1830
1830
1c60
0fc0
1fc0
38e0
7060
6060
c060
c060
c0e0
e1c0
7f80
3e00
ENDCHAR
STARTCHAR nine
ENCODING 57
SWIDTH 556 0
DWIDTH 13 0
BBX 13 18 2 0
BITMAP
03e0
0ff0
0e38
3818
3018
7018
6038
6030
6070
71f0
3fb0
1e60
0060
00c0
c0c0
e380
7f00
3e00
ENDCHAR
STARTCHAR colon
ENCODING 58
SWIDTH 278 0
DWIDTH 6 0
BBX 5 14 3 0
BITMAP
18
18
18
00
00
00
00
00
00
00
00
c0
c0
c0
ENDCHAR
STARTCHAR semicolon
ENCODING 59
SWIDTH 278 0
DWIDTH 6 0
BBX 6 17 2 -3
BITMAP
0c
0c
0c
00
00
00
00
00
00
00
00
60
60
60
20
60
c0
ENDCHAR
STARTCHAR less
ENCODING 60
SWIDTH 584 0
DWIDTH 15 0
BBX 12 10 3 3
BITMAP
0070
01e0
0780
1e00
7800
e000
f000
3c00
0f00
0380
ENDCHAR
STARTCHAR equal
ENCODING 61
SWIDTH 584 0
DWIDTH 15 0
BBX 11 6 3 4
BITMAP
7fe0
7fe0
0000
0000
ffc0
ffc0
ENDCHAR
STARTCHAR greater
ENCODING 62
SWIDTH 584 0
DWIDTH 14 0
BBX 11 10 3 3
BITMAP
7000
3c00
0f00
03c0
00e0
01e0
0780
1e00
7800
e000
ENDCHAR
STARTCHAR question
ENCODING 63
SWIDTH 556 0
DWIDTH 13 0
BBX 11 19 4 0
BITMAP
0f80
3fc0
70e0
6060
c060
c0e0
01c0
0780
0e00
1c00
1800
3000
3000
3000
0000
0000
6000
6000
6000
ENDCHAR
STARTCHAR at
ENCODING 64
SWIDTH 1015 0
DWIDTH 22 0
BBX 21 23 2 -4
BITMAP
003f00
00ffc0
03c1e0
070070
0c0038
180018
303818
30fd98
61c798
638318
630618
c60630
c60c30
c60c60
c618e0
c718c0
c3ff80
c1ef00
600000
700000
381800
1ff800
07e000
ENDCHAR
STARTCHAR A
ENCODING 65
SWIDTH 667 0
DWIDTH 17 0
BBX 15 19 1 0
BITMAP
0070
0070
00f0
00f8
01d8
0198
0398
0718
0618
0e0c
0c0c
1ffc
1ffc
380c
3006
7006
6006
e006
e006
ENDCHAR
STARTCHAR B
ENCODING 66
SWIDTH 667 0
DWIDTH 17 0
BBX 16 19 2 0
BITMAP
0ffc
0ffe
0c07
0c03
1803
1803
1807
180e
3ff8
3ffc
300e
3006
6006
6006
6006
600e
c03c
fff8
ffe0
ENDCHAR
STARTCHAR C
ENCODING 67
SWIDTH 722 0
DWIDTH 18 0
BBX 17 19 2 0
BITMAP
00fe00
03ff00
078380
0e0180
180180
380000
300000
600000
600000
600000
c00000
c00000
c00000
c00600
e00e00
601c00
787800
3ff000
0fc000
ENDCHAR
STARTCHAR D
ENCODING 68
SWIDTH 722 0
DWIDTH 18 0
BBX 18 19 2 0
BITMAP
0ffc00
0fff00
0c0780
0c0180
1801c0
1800c0
1800c0
1800c0
3000c0
300180
300180
300180
600300
600700
600e00
601c00
c07800
fff000
ffc000
ENDCHAR
STARTCHAR E
ENCODING 69
SWIDTH 667 0
DWIDTH 16 0
BBX 16 19 2 0
BITMAP
0fff
0fff
0c00
0c00
1800
1800
1800
1800
3ff8
3ff8
3000
3000
6000
6000
6000
6000
c000
fff0
fff0
ENDCHAR
STARTCHAR F
ENCODING 70
SWIDTH 611 0
DWIDTH 14 0
BBX 15 19 2 0
BITMAP
0ffe
0ffe
0c00
0c00
1800
1800
1800
1800
3000
3ff0
3ff0
3000
6000
6000
6000
6000
c000
c000
c000
ENDCHAR
STARTCHAR G
ENCODING 71
SWIDTH 778 0
DWIDTH 19 0
BBX 17 19 2 0
BITMAP
00fe00
03ff00
078380
0e0180
180180
380000
300000
600000
600000
603f80
c03f80
c00380
c00300
c00700
e00e00
601e00
787600
3fec00
0fcc00
ENDCHAR
STARTCHAR H
ENCODING 72
SWIDTH 722 0
DWIDTH 18 0
BBX 18 19 2 0
BITMAP
0c00c0
0c00c0
0c00c0
0c00c0
180180
180180
180180
180180
3fff00
3fff00
300300
300300
600600
600600
600600
600600
c00c00
c00c00
c00c00
ENDCHAR
STARTCHAR I
ENCODING 73
SWIDTH 278 0
DWIDTH 8 0
BBX 6 19 3 0
BITMAP
0c
0c
0c
0c
18
18
18
18
30
30
30
30
60
60
60
60
c0
c0
c0
ENDCHAR
STARTCHAR J
ENCODING 74
SWIDTH 500 0
DWIDTH 13 0
BBX 13 19 2 0
BITMAP
0018
0018
0018
0018
0030
0030
0030
0030
0060
0060
0060
0060
c0c0
c0c0
c1c0
c180
e380
7f00
3e00
ENDCHAR
STARTCHAR K
ENCODING 75
SWIDTH 667 0
DWIDTH 18 0
BBX 17 19 2 0
BITMAP
0c0380
0c0700
0c0e00
0c1c00
187000
18e000
19c000
1b8000
3f0000
3f8000
39c000
30c000
60e000
607000
603800
601800
c01c00
c00e00
c00600
ENDCHAR
STARTCHAR L
ENCODING 76
SWIDTH 556 0
DWIDTH 14 0
BBX 11 19 2 0
BITMAP
0c00
0c00
0c00
0c00
1800
1800
1800
1800
3000
3000
3000
3000
6000
6000
6000
6000
c000
ffe0
ffe0
ENDCHAR
STARTCHAR M
ENCODING 77
SWIDTH 833 0
DWIDTH 22 0
BBX 22 19 2 0
BITMAP
0c000c
0c001c
0e003c
1e0038
1e0078
1e00d8
1b0198
1b01b0
330330
330730
330630
330c30
619c60
619860
61b860
61b060
c1e0c0
c0e0c0
c0c0c0
ENDCHAR
STARTCHAR N
ENCODING 78
SWIDTH 722 0
DWIDTH 18 0
BBX 18 19 2 0
BITMAP
0e00c0
0e00c0
0e00c0
0f00c0
1b0180
1b0180
198180
198180
318300
30c300
30c300
30c300
606600
606600
603600
603600
c01c00
c01c00
c01c00
ENDCHAR
STARTCHAR O
ENCODING 79
SWIDTH 778 0
DWIDTH 18 0
BBX 18 19 2 0
BITMAP
00fc00
03ff00
078780
0e0180
1801c0
3800c0
3000c0
6000c0
6000c0
600180
c00180
c00380
c00300
c00600
e00e00
601c00
787800
3ff000
0fc000
ENDCHAR
STARTCHAR P
ENCODING 80
SWIDTH 667 0
DWIDTH 16 0
BBX 16 19 2 0
BITMAP
0ffc
0ffe
0c07
0c03
1803
1803
1803
1806
3ffc
3ff8
3000
3000
6000
6000
6000
6000
c000
c000
c000
ENDCHAR
STARTCHAR Q
ENCODING 81
SWIDTH 778 0
DWIDTH 18 0
BBX 18 19 2 0
BITMAP
00fc00
03ff00
078780
0e0180
1801c0
3800c0
3000c0
6000c0
6000c0
600180
c00180
c00380
c00300
c1c600
e0ee00
607c00
787800
3ffc00
0fce00
ENDCHAR
STARTCHAR R
ENCODING 82
SWIDTH 722 0
DWIDTH 17 0
BBX 16 19 2 0
BITMAP
0ff8
0ffe
0c07
0c03
1803
1803
1806
180c
3ffc
3ff8
301c
300c
600c
600c
600c
600c
c018
c018
c018
ENDCHAR
STARTCHAR S
ENCODING 83
SWIDTH 667 0
DWIDTH 16 0
BBX 16 19 1 0
BITMAP
00f8
03fe
0707
0c03
1803
1800
1c00
0f00
07e0
00f8
001c
000e
0006
c006
c006
e00c
783c
3ff0
0fc0
ENDCHAR
STARTCHAR T
ENCODING 84
SWIDTH 611 0
DWIDTH 16 0
BBX 14 19 5 0
BITMAP
fffc
fffc
0300
0300
0600
0600
0600
0600
0c00
0c00
0c00
0c00
1800
1800
1800
1800
3000
3000
3000
ENDCHAR
STARTCHAR U
ENCODING 85
SWIDTH 722 0
DWIDTH 18 0
BBX 17 19 3 0
BITMAP
180180
180180
180180
180180
300300
300300
300300
300300
600600
600600
600600
600c00
c00c00
c01c00
c01800
e03800
607000
7fe000
1f8000
ENDCHAR
STARTCHAR V
ENCODING 86
SWIDTH 667 0
DWIDTH 17 0
BBX 15 19 5 0
BITMAP
c006
c006
c00c
c00c
c018
c038
6030
6070
6060
60c0
61c0
6180
6380
6300
6700
3600
3c00
3c00
3800
ENDCHAR
STARTCHAR W
ENCODING 87
SWIDTH 944 0
DWIDTH 22 0
BBX 20 19 5 0
BITMAP
c06030
c06030
c0e060
c0e060
c1e0c0
c1e0c0
c36180
c36180
c76380
c66300
ce6700
cc6600
dc6e00
d86c00
783c00
703800
703800
603000
603000
ENDCHAR
STARTCHAR X
ENCODING 88
SWIDTH 667 0
DWIDTH 17 0
BBX 19 19 0 0
BITMAP
0c0060
0e00e0
0601c0
070380
030700
018e00
01dc00
00f800
00f000
00e000
01f000
03b000
073800
0e1800
1c1c00
380c00
700e00
e00600
c00600
ENDCHAR
STARTCHAR Y
ENCODING 89
SWIDTH 667 0
DWIDTH 16 0
BBX 15 19 5 0
BITMAP
c00e
c01c
c038
6070
60e0
61c0
3180
3300
3700
3e00
1c00
1800
1800
1800
3000
3000
3000
3000
3000
ENDCHAR
STARTCHAR Z
ENCODING 90
SWIDTH 611 0
DWIDTH 15 0
BBX 17 19 1 0
BITMAP
0fff80
0fff80
000380
000700
000e00
001c00
003800
007000
00e000
01c000
038000
070000
0e0000
1c0000
380000
700000
e00000
fff800
fff800
ENDCHAR
STARTCHAR bracketleft
ENCODING 91
SWIDTH 278 0
DWIDTH 7 0
BBX 9 24 1 -5
BITMAP
0780
0780
0600
0600
0c00
0c00
0c00
0c00
1800
1800
1800
1800
3000
3000
3000
3000
6000
6000
6000
6000
c000
c000
f000
f000
ENDCHAR
STARTCHAR backslash
ENCODING 92
SWIDTH 278 0
DWIDTH 7 0
BBX 3 19 4 0
BITMAP
c0
c0
c0
c0
c0
c0
c0
c0
c0
c0
e0
60
60
60
60
60
60
60
60
ENDCHAR
STARTCHAR bracketright
ENCODING 93
SWIDTH 278 0
DWIDTH 7 0
BBX 9 24 0 -5
BITMAP
0780
0780
0180
0180
0300
0300
0300
0300
0600
0600
0600
0600
0c00
0c00
0c00
0c00
1800
1800
1800
1800
3000
3000
f000
f000
ENDCHAR
STARTCHAR asciicircum
ENCODING 94
SWIDTH 469 0
DWIDTH 12 0
BBX 11 7 3 12
BITMAP
0300
0700
0d80
1980
30c0
60c0
c060
ENDCHAR
STARTCHAR underscore
ENCODING 95
SWIDTH 556 0
DWIDTH 14 0
BBX 14 2 -1 -5
BITMAP
fffc
fffc
ENDCHAR
STARTCHAR grave
ENCODING 96
SWIDTH 333 0
DWIDTH 7 0
BBX 5 4 5 15
BITMAP
c0
60
30
18
ENDCHAR
STARTCHAR a
ENCODING 97
SWIDTH 556 0
DWIDTH 13 0
BBX 11 14 2 0
BITMAP
07c0
1fe0
3860
3060
00e0
07c0
1fc0
78c0
6180
c180
c380
c780
fdc0
78c0
ENDCHAR
STARTCHAR b
ENCODING 98
SWIDTH 556 0
DWIDTH 14 0
BBX 13 19 2 0
BITMAP
0c00
0c00
0c00
1800
1800
19e0
1ff0
1e38
3818
3018
3018
3018
6030
6030
6060
60e0
f1c0
ff80
cf00
ENDCHAR
STARTCHAR c
ENCODING 99
SWIDTH 500 0
DWIDTH 12 0
BBX 11 14 2 0
BITMAP
07c0
0fe0
1c60
3060
6000
6000
c000
c000
c000
c000
c180
e380
7f00
3e00
ENDCHAR
STARTCHAR d
ENCODING 100
SWIDTH 556 0
DWIDTH 14 0
BBX 14 19 2 0
BITMAP
000c
000c
000c
0018
0018
0798
0ff8
1c70
3030
7030
6030
6030
c060
c060
c060
c0e0
e3c0
7fc0
3cc0
ENDCHAR
STARTCHAR e
ENCODING 101
SWIDTH 556 0
DWIDTH 13 0
BBX 12 14 2 0
BITMAP
03c0
0fe0
1c70
3830
7030
6030
ffe0
ffe0
c000
c000
c0c0
e1c0
7f80
3e00
ENDCHAR
STARTCHAR f
ENCODING 102
SWIDTH 278 0
DWIDTH 8 0
BBX 8 19 3 0
BITMAP
07
0f
0c
18
18
7e
7e
18
30
30
30
30
60
60
60
60
c0
c0
c0
ENDCHAR
STARTCHAR g
ENCODING 103
SWIDTH 556 0
DWIDTH 14 0
BBX 15 19 0 -5
BITMAP
00f6
03fe
071e
0c0c
180c
180c
181c
3018
3018
3038
3038
38f0
1ff0
07b0
0030
c060
e0e0
7fc0
1f00
ENDCHAR
STARTCHAR h
ENCODING 104
SWIDTH 556 0
DWIDTH 13 0
BBX 12 19 2 0
BITMAP
0c00
0c00
0c00
0c00
1800
19c0
1ff0
1e30
3830
3030
3030
3030
6060
6060
6060
6060
c0c0
c0c0
c0c0
ENDCHAR
STARTCHAR i
ENCODING 105
SWIDTH 222 0
DWIDTH 6 0
BBX 6 19 2 0
BITMAP
0c
0c
0c
00
00
18
18
18
30
30
30
30
60
60
60
60
c0
c0
c0
ENDCHAR
STARTCHAR j
ENCODING 106
SWIDTH 222 0
DWIDTH 6 0
BBX 9 24 -1 -5
BITMAP
0180
0180
0180
0000
0000
0300
0300
0300
0600
0600
0600
0600
0c00
0c00
0c00
0c00
1800
1800
1800
1800
3000
3000
f000
e000
ENDCHAR
STARTCHAR k
ENCODING 107
SWIDTH 500 0
DWIDTH 12 0
BBX 12 19 2 0
BITMAP
0c00
0c00
0c00
0c00
1800
1830
1860
18c0
3380
3700
3e00
3e00
6700
6300
6380
6180
c1c0
c0c0
c0c0
ENDCHAR
STARTCHAR l
ENCODING 108
SWIDTH 222 0
DWIDTH 6 0
BBX 6 19 2 0
BITMAP
0c
0c
0c
0c
18
18
18
18
30
30
30
30
60
60
60
60
c0
c0
c0
ENDCHAR
STARTCHAR m
ENCODING 109
SWIDTH 833 0
DWIDTH 20 0
BBX 18 14 2 0
BITMAP
19c780
1fefc0
1c78c0
3060c0
3060c0
3060c0
3060c0
60c180
60c180
60c180
60c180
c18300
c18300
c18300
ENDCHAR
STARTCHAR n
ENCODING 110
SWIDTH 556 0
DWIDTH 14 0
BBX 12 14 2 0
BITMAP
19c0
1ff0
1e30
3830
3030
3030
3030
6060
6060
6060
6060
c0c0
c0c0
c0c0
ENDCHAR
STARTCHAR o
ENCODING 111
SWIDTH 556 0
DWIDTH 13 0
BBX 12 14 2 0
BITMAP
07c0
0fe0
1c70
3030
6030
6030
c030
c030
c060
c060
c0c0
e380
7f00
3e00
ENDCHAR
STARTCHAR p
ENCODING 112
SWIDTH 556 0
DWIDTH 14 0
BBX 14 19 1 -5
BITMAP
0cf0
0ff8
0f1c
1c0c
180c
180c
1818
3018
3018
3030
3070
78e0
7fc0
6780
6000
c000
c000
c000
c000
ENDCHAR
STARTCHAR q
ENCODING 113
SWIDTH 556 0
DWIDTH 14 0
BBX 13 19 2 -5
BITMAP
0798
0ff8
1c70
3030
7030
6030
6030
c060
c060
c060
c0e0
e3c0
7fc0
3cc0
00c0
0180
0180
0180
0180
ENDCHAR
STARTCHAR r
ENCODING 114
SWIDTH 333 0
DWIDTH 9 0
BBX 9 14 2 0
BITMAP
1980
1b80
1e00
3c00
3800
3000
3000
6000
6000
6000
6000
c000
c000
c000
ENDCHAR
STARTCHAR s
ENCODING 115
SWIDTH 500 0
DWIDTH 12 0
BBX 11 14 2 0
BITMAP
1fc0
3fe0
7060
6060
6000
7800
3f00
0780
01c0
00c0
c0c0
c1c0
ff80
7f00
ENDCHAR
STARTCHAR t
ENCODING 116
SWIDTH 278 0
DWIDTH 8 0
BBX 7 18 3 0
BITMAP
0c
0c
0c
18
7e
7e
18
18
30
30
30
60
60
60
c0
c0
f0
70
ENDCHAR
STARTCHAR u
ENCODING 117
SWIDTH 556 0
DWIDTH 14 0
BBX 12 14 3 0
BITMAP
3030
3030
3030
6060
6060
6060
6060
c0c0
c0c0
c0c0
c1c0
c780
fd80
7980
ENDCHAR
STARTCHAR v
ENCODING 118
SWIDTH 500 0
DWIDTH 13 0
BBX 11 14 4 0
BITMAP
c060
c060
c0c0
c0c0
c180
c180
c300
c300
6600
6600
6c00
7800
3800
3000
ENDCHAR
STARTCHAR w
ENCODING 119
SWIDTH 722 0
DWIDTH 18 0
BBX 17 14 3 0
BITMAP
c0c180
c1c180
c3c300
c3c300
c6c600
c6c600
cccc00
cccc00
d8d800
78d800
707800
707000
606000
606000
ENDCHAR
STARTCHAR x
ENCODING 120
SWIDTH 500 0
DWIDTH 12 0
BBX 14 14 1 0
BITMAP
180c
181c
0c38
0c70
06e0
07c0
0380
0700
0f80
1d80
38c0
70c0
e060
c060
ENDCHAR
STARTCHAR y
ENCODING 121
SWIDTH 500 0
DWIDTH 13 0
BBX 14 19 1 -5
BITMAP
300c
300c
301c
3818
1830
1870
1860
0ce0
0cc0
0d80
0780
0700
0700
0600
0c00
1c00
3800
f000
e000
ENDCHAR
STARTCHAR z
ENCODING 122
SWIDTH 500 0
DWIDTH 12 0
BBX 13 14 1 0
BITMAP
1ff8
1ff8
0030
0060
00c0
0180
0300
0600
0c00
1800
3000
6000
ffc0
ffc0
ENDCHAR
STARTCHAR braceleft
ENCODING 123
SWIDTH 334 0
DWIDTH 9 0
BBX 10 24 2 -5
BITMAP
01c0
0300
0600
0c00
0c00
0c00
1800
1800
1800
1800
3000
6000
c000
6000
3000
3000
6000
6000
6000
c000
c000
c000
6000
3000
ENDCHAR
STARTCHAR bar
ENCODING 124
SWIDTH 260 0
DWIDTH 6 0
BBX 7 24 1 -5
BITMAP
06
06
06
06
0c
0c
0c
0c
18
18
18
18
30
30
30
30
60
60
60
60
c0
c0
c0
c0
ENDCHAR
STARTCHAR braceright
ENCODING 125
SWIDTH 334 0
DWIDTH 9 0
BBX 10 24 -1 -5
BITMAP
0600
0300
0180
0180
0180
0180
0300
0300
0300
0300
0300
0180
00c0
0180
0300
0600
0600
0c00
0c00
0c00
1800
1800
3000
e000
ENDCHAR
STARTCHAR asciitilde
ENCODING 126
SWIDTH 584 0
DWIDTH 14 0
BBX 11 4 3 5
BITMAP
3860
7e60
cfc0
c380
ENDCHAR
STARTCHAR nobreakspace
ENCODING 160
SWIDTH 278 0
DWIDTH 6 0
BBX 1 1 0 0
BITMAP
00
ENDCHAR
STARTCHAR Aogonek
ENCODING 161
SWIDTH 667 0
DWIDTH 17 0
BBX 15 25 1 -6
BITMAP
0070
0070
00f0
00f8
01d8
0198
0398
0718
0618
0e0c
0c0c
1ffc
1ffc
380c
3006
7006
6006
e006
e006
0180
0300
0600
0600
07c0
0380
ENDCHAR
STARTCHAR breve
ENCODING 162
SWIDTH 333 0
DWIDTH 8 0
BBX 8 4 4 15
BITMAP
81
c3
7e
3c
ENDCHAR
STARTCHAR Lstroke
ENCODING 163
SWIDTH 556 0
DWIDTH 14 0
BBX 12 19 1 0
BITMAP
0600
0600
0600
0600
0c00
0d80
0f00
0e00
0c00
1800
3800
7800
f000
3000
3000
3000
6000
7ff0
7ff0
ENDCHAR
STARTCHAR currency
ENCODING 164
SWIDTH 556 0
DWIDTH 13 0
BBX 13 12 2 3
BITMAP
3018
3bb8
1ff0
0c60
1860
1860
30c0
30c0
3180
7fc0
eee0
c060
ENDCHAR
STARTCHAR Lcaron
ENCODING 165
SWIDTH 556 0
DWIDTH 14 0
BBX 11 21 2 0
BITMAP
00c0
00c0
0cc0
0c40
0cc0
0d80
1800
1800
1800
1800
3000
3000
3000
3000
6000
6000
6000
6000
c000
ffe0
ffe0
ENDCHAR
STARTCHAR Sacute
ENCODING 166
SWIDTH 667 0
DWIDTH 16 0
BBX 16 24 1 0
BITMAP
0006
000c
0018
0030
0000
00f8
03fe
0707
0c03
1803
1800
1c00
0f00
07e0
00f8
001c
000e
0006
c006
c006
e00c
783c
3ff0
0fc0
ENDCHAR
STARTCHAR section
ENCODING 167
SWIDTH 556 0
DWIDTH 13 0
BBX 12 24 2 -5
BITMAP
03e0
07f0
0e30
0c30
0c00
0c00
0600
1f00
3f80
71c0
60c0
6060
6060
7060
38e0
1fc0
0f80
0600
0300
0300
c300
c700
fe00
7c00
ENDCHAR
STARTCHAR diaeresis
ENCODING 168
SWIDTH 333 0
DWIDTH 8 0
BBX 6 2 5 16
BITMAP
cc
cc
ENDCHAR
STARTCHAR Scaron
ENCODING 169
SWIDTH 667 0
DWIDTH 16 0
BBX 16 24 1 0
BITMAP
0186
00cc
0078
0030
0000
00f8
03fe
0707
0c03
1803
1800
1c00
0f00
07e0
00f8
001c
000e
0006
c006
c006
e00c
783c
3ff0
0fc0
ENDCHAR
STARTCHAR Scedilla
ENCODING 170
SWIDTH 667 0
DWIDTH 16 0
BBX 16 25 1 -6
BITMAP
00f8
03fe
0707
0c03
1803
1800
1c00
0f00
07e0
00f8
001c
000e
0006
c006
c006
e00c
783c
3ff0
0fc0
0180
0180
00c0
00c0
07c0
0380
ENDCHAR
STARTCHAR Tcaron
ENCODING 171
SWIDTH 611 0
DWIDTH 16 0
BBX 14 24 5 0
BITMAP
0c30
0660
03c0
0180
0000
fffc
fffc
0300
0300
0600
0600
0600
0600
0c00
0c00
0c00
0c00
1800
1800
1800
1800
3000
3000
3000
ENDCHAR
STARTCHAR Zacute
ENCODING 172
SWIDTH 611 0
DWIDTH 15 0
BBX 17 24 1 0
BITMAP
000600
000c00
001800
003000
000000
0fff80
0fff80
000380
000700
000e00
001c00
003800
007000
00e000
01c000
038000
070000
0e0000
1c0000
380000
700000
e00000
fff800
fff800
ENDCHAR
STARTCHAR hyphen
ENCODING 173
SWIDTH 333 0
DWIDTH 8 0
BBX 7 2 2 6
BITMAP
fe
fe
ENDCHAR
STARTCHAR Zcaron
ENCODING 174
SWIDTH 611 0
DWIDTH 15 0
BBX 17 24 1 0
BITMAP
018600
00cc00
007800
003000
000000
0fff80
0fff80
000380
000700
000e00
001c00
003800
007000
00e000
01c000
038000
070000
0e0000
1c0000
380000
700000
e00000
fff800
fff800
ENDCHAR
STARTCHAR Zabovedot
ENCODING 175
SWIDTH 611 0
DWIDTH 15 0
BBX 17 22 1 0
BITMAP
003000
003000
000000
0fff80
0fff80
000380
000700
000e00
001c00
003800
007000
00e000
01c000
038000
070000
0e0000
1c0000
380000
700000
e00000
fff800
fff800
ENDCHAR
STARTCHAR degree
ENCODING 176
SWIDTH 400 0
DWIDTH 9 0
BBX 8 7 3 11
BITMAP
3c
66
c3
c3
c3
66
3c
ENDCHAR
STARTCHAR aogonek
ENCODING 177
SWIDTH 556 0
DWIDTH 13 0
BBX 11 20 2 -6
BITMAP
07c0
1fe0
3860
3060
00e0
07c0
1fc0
78c0
6180
c180
c380
c780
fdc0
78c0
0600
0c00
1800
1800
1f00
0e00
ENDCHAR
STARTCHAR ogonek
ENCODING 178
SWIDTH 333 0
DWIDTH 7 0
BBX 5 6 1 -5
BITMAP
30
60
c0
c0
f8
70
ENDCHAR
STARTCHAR lstroke
ENCODING 179
SWIDTH 222 0
DWIDTH 6 0
BBX 8 19 2 0
BITMAP
0c
0c
0c
0c
18
18
1b
1e
78
f0
30
30
60
60
60
60
c0
c0
c0
ENDCHAR
STARTCHAR acute
ENCODING 180
SWIDTH 333 0
DWIDTH 7 0
BBX 5 4 5 15
BITMAP
18
30
60
c0
ENDCHAR
STARTCHAR lcaron
ENCODING 181
SWIDTH 400 0
DWIDTH 10 0
BBX 10 21 2 0
BITMAP
00c0
00c0
0cc0
0c40
0cc0
0d80
1800
1800
1800
1800
3000
3000
3000
3000
6000
6000
6000
6000
c000
c000
c000
ENDCHAR
STARTCHAR sacute
ENCODING 182
SWIDTH 500 0
DWIDTH 12 0
BBX 11 19 2 0
BITMAP
0060
00c0
0180
0300
0000
1fc0
3fe0
7060
6060
6000
7800
3f00
0780
01c0
00c0
c0c0
c1c0
ff80
7f00
ENDCHAR
STARTCHAR caron
ENCODING 183
SWIDTH 333 0
DWIDTH 8 0
BBX 8 4 4 15
BITMAP
c3
66
3c
18
ENDCHAR
STARTCHAR cedilla
ENCODING 184
SWIDTH 333 0
DWIDTH 7 0
BBX 5 6 1 -5
BITMAP
30
30
18
18
f8
70
ENDCHAR
STARTCHAR scaron
ENCODING 185
SWIDTH 500 0
DWIDTH 12 0
BBX 11 19 2 0
BITMAP
1860
0cc0
0780
0300
0000
1fc0
3fe0
7060
6060
6000
7800
3f00
0780
01c0
00c0
c0c0
c1c0
ff80
7f00
ENDCHAR
STARTCHAR scedilla
ENCODING 186
SWIDTH 500 0
DWIDTH 12 0
BBX 11 20 2 -6
BITMAP
1fc0
3fe0
7060
6060
6000
7800
3f00
0780
01c0
00c0
c0c0
c1c0
ff80
7f00
0600
0600
0300
0300
1f00
0e00
ENDCHAR
STARTCHAR tcaron
ENCODING 187
SWIDTH 440 0
DWIDTH 11 0
BBX 10 21 3 0
BITMAP
00c0
00c0
00c0
0c40
0cc0
0d80
1800
7e00
7e00
1800
1800
3000
3000
3000
6000
6000
6000
c000
c000
f000
7000
ENDCHAR
STARTCHAR zacute
ENCODING 188
SWIDTH 500 0
DWIDTH 12 0
BBX 13 19 1 0
BITMAP
0018
0030
0060
00c0
0000
1ff8
1ff8
0030
0060
00c0
0180
0300
0600
0c00
1800
3000
6000
ffc0
ffc0
ENDCHAR
STARTCHAR doubleacute
ENCODING 189
SWIDTH 333 0
DWIDTH 9 0
BBX 8 3 4 16
BITMAP
33
66
cc
ENDCHAR
STARTCHAR zcaron
ENCODING 190
SWIDTH 500 0
DWIDTH 12 0
BBX 13 19 1 0
BITMAP
0618
0330
01e0
00c0
0000
1ff8
1ff8
0030
0060
00c0
0180
0300
0600
0c00
1800
3000
6000
ffc0
ffc0
ENDCHAR
STARTCHAR zabovedot
ENCODING 191
SWIDTH 500 0
DWIDTH 12 0
BBX 13 17 1 0
BITMAP
00c0
00c0
0000
1ff8
1ff8
0030
0060
00c0
0180
0300
0600
0c00
1800
3000
6000
ffc0
ffc0
ENDCHAR
STARTCHAR Racute
ENCODING 192
SWIDTH 722 0
DWIDTH 17 0
BBX 16 24 2 0
BITMAP
0006
000c
0018
0030
0000
0ff8
0ffe
0c07
0c03
1803
1803
1806
180c
3ffc
3ff8
301c
300c
600c
600c
600c
600c
c018
c018
c018
ENDCHAR
STARTCHAR Aacute
ENCODING 193
SWIDTH 667 0
DWIDTH 17 0
BBX 15 24 1 0
BITMAP
000c
0018
0030
0060
0000
0070
0070
00f0
00f8
01d8
0198
0398
0718
0618
0e0c
0c0c
1ffc
1ffc
380c
3006
7006
6006
e006
e006
ENDCHAR
STARTCHAR Acircumflex
ENCODING 194
SWIDTH 667 0
DWIDTH 17 0
BBX 15 24 1 0
BITMAP
0030
0078
00cc
0186
0000
0070
0070
00f0
00f8
01d8
0198
0398
0718
0618
0e0c
0c0c
1ffc
1ffc
380c
3006
7006
6006
e006
e006
ENDCHAR
STARTCHAR Abreve
ENCODING 195
SWIDTH 667 0
DWIDTH 17 0
BBX 15 24 1 0
BITMAP
0102
0186
00fc
0078
0000
0070
0070
00f0
00f8
01d8
0198
0398
0718
0618
0e0c
0c0c
1ffc
1ffc
380c
3006
7006
6006
e006
e006
ENDCHAR
STARTCHAR Adiaeresis
ENCODING 196
SWIDTH 667 0
DWIDTH 17 0
BBX 15 23 1 0
BITMAP
018c
018c
0000
0000
0070
0070
00f0
00f8
01d8
0198
0398
0718
0618
0e0c
0c0c
1ffc
1ffc
380c
3006
7006
6006
e006
e006
ENDCHAR
STARTCHAR Lacute
ENCODING 197
SWIDTH 556 0
DWIDTH 14 0
BBX 11 24 2 0
BITMAP
00c0
0180
0300
0600
0000
0c00
0c00
0c00
0c00
1800
1800
1800
1800
3000
3000
3000
3000
6000
6000
6000
6000
c000
ffe0
ffe0
ENDCHAR
STARTCHAR Cacute
ENCODING 198
SWIDTH 722 0
DWIDTH 18 0
BBX 17 24 2 0
BITMAP
000300
000600
000c00
001800
000000
00fe00
03ff00
078380
0e0180
180180
380000
300000
600000
600000
600000
c00000
c00000
c00000
c00600
e00e00
601c00
787800
3ff000
0fc000
ENDCHAR
STARTCHAR Ccedilla
ENCODING 199
SWIDTH 722 0
DWIDTH 18 0
BBX 17 24 2 -5
BITMAP
00fc00
03ff00
078780
0e0180
180180
380000
300000
600000
600000
600000
c00000
c00000
c00000
c00600
e00e00
601c00
787800
3ff000
0fc000
0c0000
060000
060000
3e0000
1c0000
ENDCHAR
STARTCHAR Ccaron
ENCODING 200
SWIDTH 722 0
DWIDTH 18 0
BBX 17 24 2 0
BITMAP
00c300
006600
003c00
001800
000000
00fe00
03ff00
078380
0e0180
180180
380000
300000
600000
600000
600000
c00000
c00000
c00000
c00600
e00e00
601c00
787800
3ff000
0fc000
ENDCHAR
STARTCHAR Eacute
ENCODING 201
SWIDTH 667 0
DWIDTH 16 0
BBX 16 24 2 0
BITMAP
000c
0018
0030
0060
0000
0fff
0fff
0c00
0c00
1800
1800
1800
1800
3ff8
3ff8
3000
3000
6000
6000
6000
6000
c000
fff0
fff0
ENDCHAR
STARTCHAR Eogonek
ENCODING 202
SWIDTH 667 0
DWIDTH 16 0
BBX 16 25 2 -6
BITMAP
0fff
0fff
0c00
0c00
1800
1800
1800
1800
3ff8
3ff8
3000
3000
6000
6000
6000
6000
c000
fff0
fff0
0180
0300
0600
0600
07c0
0380
ENDCHAR
STARTCHAR Ediaeresis
ENCODING 203
SWIDTH 667 0
DWIDTH 16 0
BBX 16 23 2 0
BITMAP
0198
0198
0000
0000
0fff
0fff
0c00
0c00
1800
1800
1800
1800
3ff8
3ff8
3000
3000
6000
6000
6000
6000
c000
fff0
fff0
ENDCHAR
STARTCHAR Ecaron
ENCODING 204
SWIDTH 667 0
DWIDTH 16 0
BBX 16 24 2 0
BITMAP
0186
00cc
0078
0030
0000
0fff
0fff
0c00
0c00
1800
1800
1800
1800
3ff8
3ff8
3000
3000
6000
6000
6000
6000
c000
fff0
fff0
ENDCHAR
STARTCHAR Iacute
ENCODING 205
SWIDTH 278 0
DWIDTH 8 0
BBX 9 24 3 0
BITMAP
0180
0300
0600
0c00
0000
0c00
0c00
0c00
0c00
1800
1800
1800
1800
3000
3000
3000
3000
6000
6000
6000
6000
c000
c000
c000
ENDCHAR
STARTCHAR Icircumflex
ENCODING 206
SWIDTH 278 0
DWIDTH 8 0
BBX 10 24 3 0
BITMAP
0e00
1b00
3180
60c0
0000
0c00
0c00
0c00
0c00
1800
1800
1800
1800
3000
3000
3000
3000
6000
6000
6000
6000
c000
c000
c000
ENDCHAR
STARTCHAR Dcaron
ENCODING 207
SWIDTH 722 0
DWIDTH 18 0
BBX 18 24 2 0
BITMAP
018600
00cc00
007800
003000
000000
0ffc00
0fff00
0c0780
0c0180
1801c0
1800c0
1800c0
1800c0
3000c0
300180
300180
300180
600300
600700
600e00
601c00
c07800
fff000
ffc000
ENDCHAR
STARTCHAR Dstroke
ENCODING 208
SWIDTH 722 0
DWIDTH 18 0
BBX 18 19 2 0
BITMAP
0ffc00
0fff00
0c0780
0c0180
1801c0
1800c0
1800c0
1800c0
ff00c0
ff0180
300180
300180
600300
600700
600e00
601c00
c07800
fff000
ffc000
ENDCHAR
STARTCHAR Nacute
ENCODING 209
SWIDTH 722 0
DWIDTH 18 0
BBX 18 24 2 0
BITMAP
000300
000600
000c00
001800
000000
0e00c0
0e00c0
0e00c0
0f00c0
1b0180
1b0180
198180
198180
318300
30c300
30c300
30c300
606600
606600
603600
603600
c01c00
c01c00
c01c00
ENDCHAR
STARTCHAR Ncaron
ENCODING 210
SWIDTH 722 0
DWIDTH 18 0
BBX 18 24 2 0
BITMAP
00c300
006600
003c00
001800
000000
0e00c0
0e00c0
0e00c0
0f00c0
1b0180
1b0180
198180
198180
318300
30c300
30c300
30c300
606600
606600
603600
603600
c01c00
c01c00
c01c00
ENDCHAR
STARTCHAR Oacute
ENCODING 211
SWIDTH 778 0
DWIDTH 18 0
BBX 18 24 2 0
BITMAP
000300
000600
000c00
001800
000000
00fc00
03ff00
078780
0e0180
1801c0
3800c0
3000c0
6000c0
6000c0
600180
c00180
c00380
c00300
c00600
e00e00
601c00
787800
3ff000
0fc000
ENDCHAR
STARTCHAR Ocircumflex
ENCODING 212
SWIDTH 778 0
DWIDTH 18 0
BBX 18 24 2 0
BITMAP
003800
006c00
00c600
018300
000000
00fc00
03ff00
078780
0e0180
1801c0
3800c0
3000c0
6000c0
6000c0
600180
c00180
c00380
c00300
c00600
e00e00
601c00
787800
3ff000
0fc000
ENDCHAR
STARTCHAR Odoubleacute
ENCODING 213
SWIDTH 778 0
DWIDTH 18 0
BBX 18 23 2 0
BITMAP
001980
003300
006600
000000
00fc00
03ff00
078780
0e0180
1801c0
3800c0
3000c0
6000c0
6000c0
600180
c00180
c00380
c00300
c00600
e00e00
601c00
787800
3ff000
0fc000
ENDCHAR
STARTCHAR Odiaeresis
ENCODING 214
SWIDTH 778 0
DWIDTH 18 0
BBX 18 23 2 0
BITMAP
006600
006600
000000
000000
00fc00
03ff00
078780
0e0180
1801c0
3800c0
3000c0
6000c0
6000c0
600180
c00180
c00380
c00300
c00600
e00e00
601c00
787800
3ff000
0fc000
ENDCHAR
STARTCHAR multiply
ENCODING 215
SWIDTH 584 0
DWIDTH 14 0
BBX 14 13 1 0
BITMAP
2008
701c
3838
1c70
0ee0
07c0
0780
0f80
1dc0
38e0
7070
e038
4010
ENDCHAR
STARTCHAR Rcaron
ENCODING 216
SWIDTH 722 0
DWIDTH 17 0
BBX 16 24 2 0
BITMAP
0186
00cc
0078
0030
0000
0ff8
0ffe
0c07
0c03
1803
1803
1806
180c
3ffc
3ff8
301c
300c
600c
600c
600c
600c
c018
c018
c018
ENDCHAR
STARTCHAR Uring
ENCODING 217
SWIDTH 722 0
DWIDTH 18 0
BBX 17 25 3 0
BITMAP
003000
007800
004800
007800
003000
000000
180180
180180
180180
180180
300300
300300
300300
300300
600600
600600
600600
600c00
c00c00
c01c00
c01800
e03800
607000
7fe000
1f8000
ENDCHAR
STARTCHAR Uacute
ENCODING 218
SWIDTH 722 0
DWIDTH 18 0
BBX 17 24 3 0
BITMAP
000c00
001800
003000
006000
000000
180180
180180
180180
180180
300300
300300
300300
300300
600600
600600
600600
600c00
c00c00
c01c00
c01800
e03800
607000
7fe000
1f8000
ENDCHAR
STARTCHAR Udoubleacute
ENCODING 219
SWIDTH 722 0
DWIDTH 18 0
BBX 17 23 3 0
BITMAP
003300
006600
00cc00
000000
180180
180180
180180
180180
300300
300300
300300
300300
600600
600600
600600
600c00
c00c00
c01c00
c01800
e03800
607000
7fe000
1f8000
ENDCHAR
STARTCHAR Udiaeresis
ENCODING 220
SWIDTH 722 0
DWIDTH 18 0
BBX 17 23 3 0
BITMAP
018c00
018c00
000000
000000
180180
180180
180180
180180
300300
300300
300300
300300
600600
600600
600600
600c00
c00c00
c01c00
c01800
e03800
607000
7fe000
1f8000
ENDCHAR
STARTCHAR Yacute
ENCODING 221
SWIDTH 667 0
DWIDTH 16 0
BBX 15 24 5 0
BITMAP
0060
00c0
0180
0300
0000
c00e
c01c
c038
6070
60e0
61c0
3180
3300
3700
3e00
1c00
1800
1800
1800
3000
3000
3000
3000
3000
ENDCHAR
STARTCHAR Tcedilla
ENCODING 222
SWIDTH 611 0
DWIDTH 16 0
BBX 14 25 5 -6
BITMAP
fffc
fffc
0300
0300
0600
0600
0600
0600
0c00
0c00
0c00
0c00
1800
1800
1800
1800
3000
3000
3000
0300
0300
0180
0180
0f80
0700
ENDCHAR
STARTCHAR ssharp
ENCODING 223
SWIDTH 611 0
DWIDTH 15 0
BBX 12 19 3 0
BITMAP
01e0
07f0
0e30
0c30
1830
1830
1860
18e0
3380
33c0
30e0
3060
6060
6060
6060
60c0
c1c0
cf80
ce00
ENDCHAR
STARTCHAR racute
ENCODING 224
SWIDTH 333 0
DWIDTH 9 0
BBX 11 19 2 0
BITMAP
0060
00c0
0180
0300
0000
1980
1b80
1e00
3c00
3800
3000
3000
6000
6000
6000
6000
c000
c000
c000
ENDCHAR
STARTCHAR aacute
ENCODING 225
SWIDTH 556 0
DWIDTH 13 0
BBX 11 19 2 0
BITMAP
0060
00c0
0180
0300
0000
07c0
1fe0
3860
3060
00e0
07c0
1fc0
78c0
61c0
c180
c380
c780
fdc0
78c0
ENDCHAR
STARTCHAR acircumflex
ENCODING 226
SWIDTH 556 0
DWIDTH 13 0
BBX 12 19 2 0
BITMAP
0180
03c0
0660
0c30
0000
07c0
1fe0
3860
3060
00e0
07c0
1fc0
78c0
61c0
c180
c380
c780
fdc0
78c0
ENDCHAR
STARTCHAR abreve
ENCODING 227
SWIDTH 556 0
DWIDTH 13 0
BBX 11 19 2 0
BITMAP
1020
1860
0fc0
0780
0000
07c0
1fe0
3860
3060
00e0
07c0
1fc0
78c0
6180
c180
c380
c780
fdc0
78c0
ENDCHAR
STARTCHAR adiaeresis
ENCODING 228
SWIDTH 556 0
DWIDTH 13 0
BBX 11 18 2 0
BITMAP
0cc0
0cc0
0000
0000
07c0
1fe0
3860
3060
00e0
07c0
1fc0
78c0
61c0
c180
c380
c780
fdc0
78c0
ENDCHAR
STARTCHAR lacute
ENCODING 229
SWIDTH 222 0
DWIDTH 6 0
BBX 10 24 2 0
BITMAP
00c0
0180
0300
0600
0000
0c00
0c00
0c00
0c00
1800
1800
1800
1800
3000
3000
3000
3000
6000
6000
6000
6000
c000
c000
c000
ENDCHAR
STARTCHAR cacute
ENCODING 230
SWIDTH 500 0
DWIDTH 12 0
BBX 12 19 2 0
BITMAP
0030
0060
00c0
0180
0000
07c0
0fe0
1c60
3060
6000
6000
c000
c000
c000
c000
c180
e380
7f00
3e00
ENDCHAR
STARTCHAR ccedilla
ENCODING 231
SWIDTH 500 0
DWIDTH 12 0
BBX 11 19 2 -5
BITMAP
07c0
0fe0
1c60
3060
6000
6000
c000
c000
c000
c000
c180
e380
7f00
3e00
3000
1800
1800
f800
7000
ENDCHAR
STARTCHAR ccaron
ENCODING 232
SWIDTH 500 0
DWIDTH 12 0
BBX 12 19 2 0
BITMAP
0c30
0660
03c0
0180
0000
07c0
0fe0
1c60
3060
6000
6000
c000
c000
c000
c000
c180
e380
7f00
3e00
ENDCHAR
STARTCHAR eacute
ENCODING 233
SWIDTH 556 0
DWIDTH 13 0
BBX 12 19 2 0
BITMAP
0030
0060
00c0
0180
0000
03c0
0fe0
1c70
3830
7030
6030
ffe0
ffe0
c000
c000
c0c0
e1c0
7f80
3e00
ENDCHAR
STARTCHAR eogonek
ENCODING 234
SWIDTH 556 0
DWIDTH 13 0
BBX 12 20 2 -6
BITMAP
03c0
0fe0
1c70
3830
7030
6030
ffe0
ffe0
c000
c000
c0c0
e1c0
7f80
3e00
0600
0c00
1800
1800
1f00
0e00
ENDCHAR
STARTCHAR ediaeresis
ENCODING 235
SWIDTH 556 0
DWIDTH 13 0
BBX 12 18 2 0
BITMAP
0660
0660
0000
0000
03c0
0fe0
1c70
3830
7030
6030
ffe0
ffe0
c000
c000
c0c0
e1c0
7f80
3e00
ENDCHAR
STARTCHAR ecaron
ENCODING 236
SWIDTH 556 0
DWIDTH 13 0
BBX 12 19 2 0
BITMAP
0c30
0660
03c0
0180
0000
03c0
0fe0
1c70
3830
7030
6030
ffe0
ffe0
c000
c000
c0c0
e1c0
7f80
3e00
ENDCHAR
STARTCHAR iacute
ENCODING 237
SWIDTH 278 0
DWIDTH 6 0
BBX 8 19 2 0
BITMAP
03
06
0c
18
00
18
18
18
30
30
30
30
60
60
60
60
c0
c0
c0
ENDCHAR
STARTCHAR icircumflex
ENCODING 238
SWIDTH 278 0
DWIDTH 6 0
BBX 8 19 2 0
BITMAP
18
3c
66
c3
00
18
18
18
30
30
30
30
60
60
60
60
c0
c0
c0
ENDCHAR
STARTCHAR dcaron
ENCODING 239
SWIDTH 720 0
DWIDTH 18 0
BBX 18 21 2 0
BITMAP
0000c0
0000c0
000cc0
000c40
000cc0
001980
001800
079800
0ff800
1c7000
303000
703000
603000
603000
c06000
c06000
c06000
c0e000
e3c000
7fc000
3cc000
ENDCHAR
STARTCHAR dstroke
ENCODING 240
SWIDTH 680 0
DWIDTH 17 0
BBX 17 19 2 0
BITMAP
000c00
000c00
00ff80
00ff80
001800
079800
0ff800
1c7000
303000
703000
603000
603000
c06000
c06000
c06000
c0e000
e3c000
7fc000
3cc000
ENDCHAR
STARTCHAR nacute
ENCODING 241
SWIDTH 556 0
DWIDTH 14 0
BBX 12 19 2 0
BITMAP
0030
0060
00c0
0180
0000
19c0
1ff0
1e30
3830
3030
3030
3030
6060
6060
6060
6060
c0c0
c0c0
c0c0
ENDCHAR
STARTCHAR ncaron
ENCODING 242
SWIDTH 556 0
DWIDTH 14 0
BBX 12 19 2 0
BITMAP
0c30
0660
03c0
0180
0000
19c0
1ff0
1e30
3830
3030
3030
3030
6060
6060
6060
6060
c0c0
c0c0
c0c0
ENDCHAR
STARTCHAR oacute
ENCODING 243
SWIDTH 556 0
DWIDTH 13 0
BBX 12 19 2 0
BITMAP
00c0
0180
0300
0600
0000
07c0
0fe0
1c70
3030
6030
6030
c030
c030
c060
c060
c0c0
e380
7f00
3e00
ENDCHAR
STARTCHAR ocircumflex
ENCODING 244
SWIDTH 556 0
DWIDTH 13 0
BBX 12 19 2 0
BITMAP
0300
0780
0cc0
1860
0000
07c0
0fe0
1c70
3030
6030
6030
c030
c030
c060
c060
c0c0
e380
7f00
3e00
ENDCHAR
STARTCHAR odoubleacute
ENCODING 245
SWIDTH 556 0
DWIDTH 13 0
BBX 13 18 2 0
BITMAP
0198
0330
0660
0000
07c0
0fe0
1c70
3030
6030
6030
c030
c030
c060
c060
c0c0
e380
7f00
3e00
ENDCHAR
STARTCHAR odiaeresis
ENCODING 246
SWIDTH 556 0
DWIDTH 13 0
BBX 12 18 2 0
BITMAP
0660
0660
0000
0000
07c0
0fe0
1c70
3030
6030
6030
c030
c030
c060
c060
c0c0
e380
7f00
3e00
ENDCHAR
STARTCHAR division
ENCODING 247
SWIDTH 584 0
DWIDTH 14 0
BBX 12 12 2 1
BITMAP
0300
0300
0300
0000
0000
fff0
fff0
0000
0000
0c00
0c00
0c00
ENDCHAR
STARTCHAR rcaron
ENCODING 248
SWIDTH 333 0
DWIDTH 9 0
BBX 11 19 2 0
BITMAP
1860
0cc0
0780
0300
0000
1980
1b80
1e00
3c00
3800
3000
3000
6000
6000
6000
6000
c000
c000
c000
ENDCHAR
STARTCHAR uring
ENCODING 249
SWIDTH 556 0
DWIDTH 14 0
BBX 12 20 3 0
BITMAP
0180
03c0
0240
03c0
0180
0000
3030
3030
3030
6060
6060
6060
6060
c0c0
c0c0
c0c0
c1c0
c780
fd80
7980
ENDCHAR
STARTCHAR uacute
ENCODING 250
SWIDTH 556 0
DWIDTH 14 0
BBX 12 19 3 0
BITMAP
0060
00c0
0180
0300
0000
3030
3030
3030
6060
6060
6060
6060
c0c0
c0c0
c0c0
c1c0
c780
fd80
7980
ENDCHAR
STARTCHAR udoubleacute
ENCODING 251
SWIDTH 556 0
DWIDTH 14 0
BBX 13 18 3 0
BITMAP
0198
0330
0660
0000
3030
3030
3030
6060
6060
6060
6060
c0c0
c0c0
c0c0
c1c0
c780
fd80
7980
ENDCHAR
STARTCHAR udiaeresis
ENCODING 252
SWIDTH 556 0
DWIDTH 14 0
BBX 12 18 3 0
BITMAP
0660
0660
0000
0000
3030
3030
3030
6060
6060
6060
6060
c0c0
c0c0
c0c0
c1c0
c780
fd80
7980
ENDCHAR
STARTCHAR yacute
ENCODING 253
SWIDTH 500 0
DWIDTH 13 0
BBX 14 24 1 -5
BITMAP
0030
0060
00c0
0180
0000
300c
300c
301c
3818
1830
1870
1860
0ce0
0cc0
0d80
0780
0700
0700
0600
0c00
1c00
3800
f000
e000
ENDCHAR
STARTCHAR tcedilla
ENCODING 254
SWIDTH 278 0
DWIDTH 8 0
BBX 7 24 3 -6
BITMAP
0c
0c
0c
18
7e
7e
18
18
30
30
30
60
60
60
c0
c0
f0
70
18
18
0c
0c
7c
38
ENDCHAR
STARTCHAR abovedot
ENCODING 255
SWIDTH 333 0
DWIDTH 8 0
BBX 2 2 7 16
BITMAP
c0
c0
ENDCHAR
ENDFONT
